<?xml version="1.0" encoding="utf-8"?>
<svg viewBox="0 0 512 512" xmlns="http://www.w3.org/2000/svg">
  <defs>
    <linearGradient id="grad1" x1="0%" y1="0%" x2="100%" y2="100%">
      <stop offset="0" style="stop-color:#00ffff;stop-opacity:1"/>
      <stop offset="1" style="stop-color:#ff00ff;stop-opacity:1"/>
    </linearGradient>
    <radialGradient id="grad2" cx="50%" cy="50%" r="50%">
      <stop offset="0" style="stop-color:#ffffff;stop-opacity:0.1"/>
      <stop offset="1" style="stop-color:#000000;stop-opacity:0.3"/>
    </radialGradient>
    <filter id="glow">
      <feGaussianBlur stdDeviation="4" result="coloredBlur"/>
      <feMerge>
        <feMergeNode in="coloredBlur"/>
        <feMergeNode in="SourceGraphic"/>
      </feMerge>
    </filter>
  </defs>
  <rect width="512" height="512" style="paint-order: stroke; fill: rgb(9, 9, 11);"/>
  <circle cx="256" cy="256" r="250" fill="url(#grad2)"/>
  <g opacity="0.7">
    <circle cx="256" cy="256" r="200" fill="none" stroke="url(#grad1)" stroke-width="1.5"/>
    <circle cx="256" cy="256" r="170" fill="none" stroke="url(#grad1)" stroke-width="1.5"/>
    <circle cx="256" cy="256" r="140" fill="none" stroke="url(#grad1)" stroke-width="1.5"/>
    <circle cx="256" cy="256" r="110" fill="none" stroke="url(#grad1)" stroke-width="1.5"/>
    <g id="radialLines">
      <line x1="256" y1="256" x2="456" y2="256" stroke="url(#grad1)" stroke-width="1"/>
      <line x1="256" y1="256" x2="56" y2="256" stroke="url(#grad1)" stroke-width="1"/>
      <line x1="256" y1="256" x2="256" y2="456" stroke="url(#grad1)" stroke-width="1"/>
      <line x1="256" y1="256" x2="256" y2="56" stroke="url(#grad1)" stroke-width="1"/>
    </g>
    <g transform="matrix(0.7071067811865476, 0.7071067811865476, -0.7071067811865476, 0.7071067811865476, 256, -106.03867196751236)">
      <line x1="256" y1="256" x2="456" y2="256" stroke="url(#grad1)" stroke-width="1"/>
      <line x1="256" y1="256" x2="56" y2="256" stroke="url(#grad1)" stroke-width="1"/>
      <line x1="256" y1="256" x2="256" y2="456" stroke="url(#grad1)" stroke-width="1"/>
      <line x1="256" y1="256" x2="256" y2="56" stroke="url(#grad1)" stroke-width="1"/>
    </g>
    <g transform="matrix(0, 1, -1, 0, 512, 0)">
      <line x1="256" y1="256" x2="456" y2="256" stroke="url(#grad1)" stroke-width="1"/>
      <line x1="256" y1="256" x2="56" y2="256" stroke="url(#grad1)" stroke-width="1"/>
      <line x1="256" y1="256" x2="256" y2="456" stroke="url(#grad1)" stroke-width="1"/>
      <line x1="256" y1="256" x2="256" y2="56" stroke="url(#grad1)" stroke-width="1"/>
    </g>
    <g transform="matrix(-0.7071067811865476, 0.7071067811865476, -0.7071067811865476, -0.7071067811865476, 618.0386719675123, 256)">
      <line x1="256" y1="256" x2="456" y2="256" stroke="url(#grad1)" stroke-width="1"/>
      <line x1="256" y1="256" x2="56" y2="256" stroke="url(#grad1)" stroke-width="1"/>
      <line x1="256" y1="256" x2="256" y2="456" stroke="url(#grad1)" stroke-width="1"/>
      <line x1="256" y1="256" x2="256" y2="56" stroke="url(#grad1)" stroke-width="1"/>
    </g>
    <g id="nodes">
      <circle cx="456" cy="256" r="4" fill="url(#grad1)"/>
      <circle cx="56" cy="256" r="4" fill="url(#grad1)"/>
      <circle cx="256" cy="456" r="4" fill="url(#grad1)"/>
      <circle cx="256" cy="56" r="4" fill="url(#grad1)"/>
    </g>
    <g transform="matrix(0.7071067811865476, 0.7071067811865476, -0.7071067811865476, 0.7071067811865476, 256, -106.03867196751236)">
      <circle cx="456" cy="256" r="4" fill="url(#grad1)"/>
      <circle cx="56" cy="256" r="4" fill="url(#grad1)"/>
      <circle cx="256" cy="456" r="4" fill="url(#grad1)"/>
      <circle cx="256" cy="56" r="4" fill="url(#grad1)"/>
    </g>
    <g transform="matrix(0, 1, -1, 0, 512, 0)">
      <circle cx="456" cy="256" r="4" fill="url(#grad1)"/>
      <circle cx="56" cy="256" r="4" fill="url(#grad1)"/>
      <circle cx="256" cy="456" r="4" fill="url(#grad1)"/>
      <circle cx="256" cy="56" r="4" fill="url(#grad1)"/>
    </g>
    <g transform="matrix(-0.7071067811865476, 0.7071067811865476, -0.7071067811865476, -0.7071067811865476, 618.0386719675123, 256)">
      <circle cx="456" cy="256" r="4" fill="url(#grad1)"/>
      <circle cx="56" cy="256" r="4" fill="url(#grad1)"/>
      <circle cx="256" cy="456" r="4" fill="url(#grad1)"/>
      <circle cx="256" cy="56" r="4" fill="url(#grad1)"/>
    </g>
    <circle cx="256" cy="256" r="12" fill="url(#grad1)" filter="url(#glow)"/>
    <g id="particles">
      <circle cx="300" cy="200" r="2" fill="url(#grad1)" filter="url(#glow)"/>
      <circle cx="350" cy="300" r="1.5" fill="url(#grad1)" filter="url(#glow)"/>
      <circle cx="200" cy="350" r="3" fill="url(#grad1)" filter="url(#glow)"/>
      <circle cx="150" cy="180" r="2" fill="url(#grad1)" filter="url(#glow)"/>
      <circle cx="400" cy="150" r="1.5" fill="url(#grad1)" filter="url(#glow)"/>
    </g>
    <g transform="matrix(0.3090169943749474, 0.9510565162951535, -0.9510565162951535, 0.3090169943749474, 420.3621176115728, -66.57881873154582)">
      <circle cx="300" cy="200" r="2" fill="url(#grad1)" filter="url(#glow)"/>
      <circle cx="350" cy="300" r="1.5" fill="url(#grad1)" filter="url(#glow)"/>
      <circle cx="200" cy="350" r="3" fill="url(#grad1)" filter="url(#glow)"/>
      <circle cx="150" cy="180" r="2" fill="url(#grad1)" filter="url(#glow)"/>
      <circle cx="400" cy="150" r="1.5" fill="url(#grad1)" filter="url(#glow)"/>
    </g>
    <g transform="matrix(-0.8090169943749475, 0.5877852522924731, -0.5877852522924731, -0.8090169943749475, 613.5813751468597, 312.6353259731134)">
      <circle cx="300" cy="200" r="2" fill="url(#grad1)" filter="url(#glow)"/>
      <circle cx="350" cy="300" r="1.5" fill="url(#grad1)" filter="url(#glow)"/>
      <circle cx="200" cy="350" r="3" fill="url(#grad1)" filter="url(#glow)"/>
      <circle cx="150" cy="180" r="2" fill="url(#grad1)" filter="url(#glow)"/>
      <circle cx="400" cy="150" r="1.5" fill="url(#grad1)" filter="url(#glow)"/>
    </g>
    <g transform="matrix(-0.8090169943749475, -0.5877852522924731, 0.5877852522924731, -0.8090169943749475, 312.6353259731134, 613.5813751468597)">
      <circle cx="300" cy="200" r="2" fill="url(#grad1)" filter="url(#glow)"/>
      <circle cx="350" cy="300" r="1.5" fill="url(#grad1)" filter="url(#glow)"/>
      <circle cx="200" cy="350" r="3" fill="url(#grad1)" filter="url(#glow)"/>
      <circle cx="150" cy="180" r="2" fill="url(#grad1)" filter="url(#glow)"/>
      <circle cx="400" cy="150" r="1.5" fill="url(#grad1)" filter="url(#glow)"/>
    </g>
    <g transform="matrix(0.3090169943749474, -0.9510565162951535, 0.9510565162951535, 0.3090169943749474, -66.57881873154582, 420.3621176115728)">
      <circle cx="300" cy="200" r="2" fill="url(#grad1)" filter="url(#glow)"/>
      <circle cx="350" cy="300" r="1.5" fill="url(#grad1)" filter="url(#glow)"/>
      <circle cx="200" cy="350" r="3" fill="url(#grad1)" filter="url(#glow)"/>
      <circle cx="150" cy="180" r="2" fill="url(#grad1)" filter="url(#glow)"/>
      <circle cx="400" cy="150" r="1.5" fill="url(#grad1)" filter="url(#glow)"/>
    </g>
  </g>
  <text style="fill: rgb(145, 240, 255); font-family: 'Arial Black'; font-size: 70px; white-space: pre;" x="37.47" y="274.995">OrientHong</text>
</svg>